<?xml version="1.0" encoding="utf-8"?>
<!DOCTYPE svg PUBLIC "-//W3C//DTD SVG 1.1//EN" "http://www.w3.org/Graphics/SVG/1.1/DTD/svg11.dtd">
<svg version="1.1" xmlns="http://www.w3.org/2000/svg" xmlns:xlink="http://www.w3.org/1999/xlink" x="0px" y="0px"
	 width="200px" height="200px" viewBox="0 0 595.28 841.89" enable-background="new 0 0 595.28 841.89" xml:space="preserve">
	<rect width="595.28" height="841.89"/>
<rect x="-50000" y="-50000" width="100000" height="100000" fill="#ABABAB" /><path fill="#FFFFFF" d="M281,591.83c6.008-8.95,30-8.194,37,0c7,8.193,6,25.211,0,32.774s-31.5,8.194-37,0
	C275.5,616.411,275.5,600.023,281,591.83z"/>
<path fill="#FFFFFF" d="M240,603.294c-0.814,8.425,8.5,22.206,14.5,23.706s10.5,0.879,12-5.811S269.5,597,263,594
	S240.476,598.373,240,603.294z"/>
<path fill="#FFFFFF" d="M359.249,603.294c0.813,8.425-8.5,22.206-14.5,23.706s-10.5,0.879-12-5.811s-3-24.189,3.5-27.189
	S358.773,598.373,359.249,603.294z"/>
<path fill="#FFFFFF" d="M235.058,588.043c-10.145-5.798,11.594-56.521-1.449-63.768s-30.985,24.661-43.479,24.638
	c-9.482-0.018-26.191-18.054-26.087-27.536c0.14-12.746,29.819-25.015,35.87-36.232c7.31-13.553,2.476-59.118,0-61.594
	c-4.365-4.365-16.085,4.871-16.085,4.871l-3.842,56.723c0,0-60.145-33.333-60.145-141.304S226.257,183.696,300.17,183.696
	s180.329,52.174,180.329,160.145s-60.145,141.304-60.145,141.304l-3.843-56.723c0,0-11.72-9.236-16.085-4.871
	c-2.476,2.476-7.31,48.041,0,61.594c6.051,11.218,35.729,23.486,35.87,36.232c0.104,9.482-16.605,27.519-26.088,27.536
	c-12.492,0.023-30.435-31.884-43.479-24.638c-13.043,7.246,8.696,57.97-1.449,63.768c-10.145,5.798-36.021-17.391-65.111-17.391
	S245.203,593.841,235.058,588.043z M262.5,454.5c0.5,6,77.5,2,77.5-2s-24.005-31.962-40.359-31.555
	C281.78,421.39,262,448.5,262.5,454.5z M166.5,336.5c-12.063,8.773-18,32-12.5,39.5s53.5,38,72,35.5s48-17.5,54-30s7-28.5-7-41
	s-58.5-19.5-70.5-17S177.5,328.5,166.5,336.5z M395.109,323.5c-12-2.5-56.5,4.5-70.5,17s-13,28.5-7,41s35.5,27.5,54,30
	s66.5-28,72-35.5s-0.437-30.727-12.5-39.5C420.109,328.5,407.109,326,395.109,323.5z"/>
</svg>
